<?xml version="1.0" standalone="no"?>
<!DOCTYPE svg PUBLIC "-//W3C//DTD SVG 20010904//EN"
 "http://www.w3.org/TR/2001/REC-SVG-20010904/DTD/svg10.dtd">
<svg version="1.0" xmlns="http://www.w3.org/2000/svg"
 width="250.000000pt" height="130.000000pt" viewBox="0 0 250.000000 130.000000"
 preserveAspectRatio="xMidYMid meet">

<g transform="translate(0.000000,130.000000) scale(0.100000,-0.100000)"
fill="#000000" stroke="none">
<path d="M273 891 l-173 -86 0 -53 0 -53 30 16 c21 11 30 23 30 40 0 22 17 33
143 96 l142 71 173 -86 172 -86 0 28 c0 25 -11 33 -172 113 l-173 86 -172 -86z"/>
<path d="M218 729 c-196 -98 -218 -112 -218 -134 0 -14 2 -25 4 -25 2 0 100
47 218 105 117 58 219 105 226 105 7 0 75 -32 152 -70 l140 -70 0 -78 0 -77
-145 -73 -145 -72 -145 72 -145 73 0 63 0 63 -30 -16 c-28 -15 -30 -19 -30
-75 l0 -60 175 -87 175 -88 170 85 170 85 0 107 0 108 -170 85 c-93 47 -173
85 -177 84 -5 0 -106 -49 -225 -110z"/>
<path d="M890 730 l0 -80 34 0 c19 0 44 8 57 19 21 17 22 21 10 47 -8 16 -13
39 -12 51 3 25 -24 43 -63 43 -26 0 -26 -1 -26 -80z m60 35 c0 -8 -7 -15 -15
-15 -8 0 -15 7 -15 15 0 8 7 15 15 15 8 0 15 -7 15 -15z m8 -68 c2 -12 -3 -17
-17 -17 -15 0 -21 6 -21 21 0 25 33 22 38 -4z"/>
<path d="M1056 743 c-15 -37 -30 -73 -33 -80 -3 -7 2 -13 11 -13 9 0 19 7 22
15 4 10 20 15 45 15 26 0 42 -5 45 -15 4 -8 14 -15 24 -15 17 0 15 8 -15 78
-45 102 -61 105 -99 15z m52 -31 c-27 -5 -32 2 -18 29 l13 22 13 -24 c11 -22
11 -24 -8 -27z"/>
<path d="M1220 746 c0 -56 3 -67 22 -80 30 -21 61 -20 81 2 23 25 24 142 2
142 -10 0 -15 -16 -17 -62 -3 -60 -4 -63 -28 -63 -24 0 -25 3 -28 63 -2 46 -7
62 -17 62 -12 0 -15 -15 -15 -64z"/>
<path d="M1380 731 l0 -81 44 0 c58 0 96 29 96 75 0 51 -27 77 -88 83 l-52 5
0 -82z m94 33 c19 -18 21 -55 4 -72 -7 -7 -25 -12 -40 -12 -27 0 -28 2 -28 50
0 46 2 50 24 50 14 0 32 -7 40 -16z"/>
<path d="M1560 730 c0 -73 2 -80 20 -80 16 0 20 7 20 33 l0 32 21 -32 c12 -18
29 -33 40 -33 18 0 17 1 -2 35 -19 32 -19 36 -5 51 35 34 6 74 -55 74 l-39 0
0 -80z m73 35 c1 -5 -6 -11 -15 -13 -11 -2 -18 3 -18 13 0 17 30 18 33 0z"/>
<path d="M1736 743 c-15 -37 -30 -73 -33 -80 -3 -7 2 -13 11 -13 9 0 19 7 22
15 4 10 20 15 45 15 26 0 42 -5 45 -15 4 -8 14 -15 24 -15 17 0 15 8 -15 78
-45 102 -61 105 -99 15z m52 -31 c-27 -5 -32 2 -18 29 l13 22 13 -24 c11 -22
11 -24 -8 -27z"/>
<path d="M1935 799 c-71 -41 -55 -133 25 -145 41 -7 94 11 87 29 -2 6 -11 10
-18 8 -46 -13 -71 -12 -89 4 -51 46 16 109 79 76 9 -5 23 -6 30 -2 35 22 -76
52 -114 30z"/>
<path d="M2135 799 c-71 -41 -55 -133 25 -145 41 -7 94 11 87 29 -2 6 -11 10
-18 8 -46 -13 -71 -12 -89 4 -51 46 16 109 79 76 9 -5 23 -6 30 -2 35 22 -76
52 -114 30z"/>
<path d="M2334 801 c-26 -11 -54 -49 -54 -73 0 -9 11 -30 24 -45 20 -23 32
-28 71 -28 39 0 51 5 71 28 30 35 30 59 2 92 -25 28 -79 40 -114 26z m77 -31
c12 -7 19 -21 19 -41 0 -62 -101 -66 -108 -4 -6 46 42 70 89 45z"/>
<path d="M410 636 c0 -9 7 -16 16 -16 9 0 14 5 12 12 -6 18 -28 21 -28 4z"/>
<path d="M460 635 c0 -8 7 -15 15 -15 8 0 15 7 15 15 0 8 -7 15 -15 15 -8 0
-15 -7 -15 -15z"/>
<path d="M410 590 c0 -5 7 -10 15 -10 8 0 15 5 15 10 0 6 -7 10 -15 10 -8 0
-15 -4 -15 -10z"/>
<path d="M460 590 c0 -5 7 -10 15 -10 8 0 15 5 15 10 0 6 -7 10 -15 10 -8 0
-15 -4 -15 -10z"/>
<path d="M901 536 c-18 -26 -30 -50 -27 -53 3 -3 8 2 12 11 8 22 60 21 73 -1
17 -30 12 7 -8 51 l-17 40 -33 -48z m43 -1 c4 -10 -1 -15 -14 -15 -13 0 -18 5
-14 15 4 8 10 15 14 15 4 0 10 -7 14 -15z"/>
<path d="M1577 573 c-8 -13 -20 -98 -13 -92 6 6 26 99 20 99 -1 0 -5 -3 -7 -7z"/>
<path d="M1986 550 c-4 -19 -9 -42 -12 -50 -6 -23 75 -21 89 1 16 26 1 49 -32
49 -20 0 -31 6 -33 18 -3 10 -7 4 -12 -18z m71 -26 c7 -18 -12 -34 -40 -34
-23 0 -34 29 -16 41 22 14 49 10 56 -7z"/>
<path d="M2137 573 c-3 -5 -7 -28 -11 -53 -7 -49 7 -28 17 28 6 30 3 41 -6 25z"/>
<path d="M1000 535 c0 -9 7 -18 15 -21 22 -9 18 -27 -5 -21 -11 3 -18 1 -14
-4 8 -13 44 -11 44 3 0 6 -8 20 -17 31 -17 19 -17 20 5 15 12 -4 20 -2 16 3
-9 15 -44 10 -44 -6z"/>
<path d="M1072 538 c-17 -17 -15 -45 4 -52 24 -9 64 -7 64 4 0 5 -13 7 -29 4
-16 -4 -32 -1 -35 5 -5 7 7 11 34 11 34 0 41 3 38 18 -4 21 -57 29 -76 10z
m63 -8 c4 -6 -7 -10 -25 -10 -18 0 -29 4 -25 10 3 6 15 10 25 10 10 0 22 -4
25 -10z"/>
<path d="M1176 541 c-3 -5 1 -14 9 -21 22 -18 18 -32 -6 -25 -15 5 -19 4 -15
-4 9 -14 43 -14 52 1 4 6 0 16 -9 23 -21 15 -22 29 -2 21 8 -3 15 -1 15 4 0
12 -37 13 -44 1z"/>
<path d="M1246 531 c-15 -17 -16 -23 -6 -36 16 -19 50 -19 76 -1 15 12 17 18
8 33 -16 26 -56 28 -78 4z m62 -3 c15 -15 -3 -38 -30 -38 -23 0 -36 29 -17 41
19 12 33 11 47 -3z"/>
<path d="M1350 538 c0 -7 -3 -24 -5 -38 -5 -22 -4 -22 9 4 7 17 22 33 32 37
15 6 14 8 -8 8 -16 1 -28 -4 -28 -11z"/>
<path d="M1410 535 c-23 -28 -8 -50 35 -50 36 0 40 2 46 33 6 32 6 32 -31 32
-21 0 -43 -7 -50 -15z m67 -11 c7 -18 -12 -34 -40 -34 -23 0 -34 29 -16 41 22
14 49 10 56 -7z"/>
<path d="M1606 526 c-11 -40 -5 -51 9 -18 10 22 21 32 36 32 18 0 21 -5 17
-30 -3 -16 -1 -30 4 -30 5 0 8 15 6 33 -3 28 -6 32 -35 33 -24 1 -33 -4 -37
-20z"/>
<path d="M1710 537 c0 -6 -3 -23 -5 -37 -4 -20 -2 -18 10 8 10 21 22 32 36 32
19 0 21 -4 15 -32 -4 -20 -3 -29 3 -23 5 6 11 19 13 30 2 12 13 21 27 23 22 4
23 1 17 -29 -5 -24 -3 -30 5 -22 6 6 9 21 7 34 -3 22 -8 24 -65 26 -45 2 -63
-1 -63 -10z"/>
<path d="M1875 534 c-18 -18 -16 -33 7 -47 20 -13 64 -1 72 19 15 38 -47 60
-79 28z m60 -19 c0 -23 -30 -32 -51 -14 -11 9 -12 15 -2 26 17 20 53 12 53
-12z"/>
<path d="M2090 531 c0 -11 -3 -27 -7 -37 -4 -11 -3 -15 4 -11 13 8 23 67 11
67 -4 0 -8 -9 -8 -19z"/>
<path d="M2161 540 c-1 -8 -4 -26 -7 -40 -5 -22 -4 -23 6 -7 6 10 9 28 7 40
-2 12 -5 15 -6 7z"/>
<path d="M2202 538 c-19 -19 -14 -47 11 -53 32 -7 67 -2 67 10 0 5 3 19 6 31
5 17 0 20 -33 22 -21 2 -44 -3 -51 -10z m66 -20 c2 -12 -5 -19 -23 -24 -34 -8
-53 9 -35 31 17 20 54 16 58 -7z"/>
<path d="M2305 519 c-4 -17 -4 -33 -1 -36 3 -4 6 1 6 10 0 10 9 26 20 37 19
19 19 20 1 20 -14 0 -21 -9 -26 -31z"/>
<path d="M2360 531 c0 -11 -3 -27 -7 -37 -4 -11 -3 -15 4 -11 13 8 23 67 11
67 -4 0 -8 -9 -8 -19z"/>
<path d="M2402 538 c-19 -19 -14 -47 11 -53 32 -7 67 -2 67 10 0 5 3 19 6 31
5 17 0 20 -33 22 -21 2 -44 -3 -51 -10z m66 -20 c2 -12 -5 -19 -23 -24 -34 -8
-53 9 -35 31 17 20 54 16 58 -7z"/>
</g>
</svg>
